# xmcd
#
# Track frame offsets:
# 150
# 15377
# 30591
# 46986
# 67584
# 82014
# 99081
# 114348
# 129889
# 143925
# 167788
# 184038
#
# Disc length: 2594 seconds
#
#
# Revision: 0
# Processed by: cddbd v1.5.2PL0 Copyright (c) Steve Scherf et al.
# Submitted via: FreeRIP 2.945 
#
DISCID=880a200c
DTITLE=Bill Anderson - By Request
DYEAR=1900
DGENRE=Country
TTITLE0=Deck Of Cards
TTITLE1=Green Green Grass Of Home
TTITLE2=Detroit City
TTITLE3=I Wonder If God Likes Country Music
TTITLE4=Unicorn
TTITLE5=Southern Fried
TTITLE6=Mr. Peepers
TTITLE7=Touch Of The Master's Hand
TTITLE8=Drinking From My Saucer
TTITLE9=Ol' Doc Brown
TTITLE10=Footprints In The Sand
TTITLE11=Friends
EXTD=
EXTT0=
EXTT1=
EXTT2=
EXTT3=
EXTT4=
EXTT5=
EXTT6=
EXTT7=
EXTT8=
EXTT9=
EXTT10=
EXTT11=
PLAYORDER=
